<svg width="280" height="96" viewBox="0 0 280 96" fill="none" xmlns="http://www.w3.org/2000/svg">
<g clip-path="url(#clip0_0_7234)">
<path d="M225.348 68.0904H229.268V59.8813H231.358C232.935 59.8813 233.611 60.8095 233.674 62.3323L233.782 66.0539C233.809 66.8108 233.89 67.5497 234.269 68.0904H238.513V67.9282C237.783 67.5497 237.675 66.4864 237.648 64.4499C237.594 60.3409 237.188 58.8721 234.521 58.5207V58.4666C236.72 58.007 237.756 56.2679 237.756 53.6817C237.756 50.3657 235.801 48.6806 232.593 48.6806H225.357V68.0994L225.348 68.0904ZM229.268 51.5551H231.115C232.881 51.5551 233.836 52.4562 233.836 54.2494C233.836 56.34 232.773 57.16 230.899 57.16H229.268V51.5551Z" fill="#8BADDC"/>
<path d="M167.623 48.6806V62.2242C167.623 67.4146 170.642 68.4779 173.823 68.4779C177.004 68.4779 180.022 67.1713 180.022 62.2242V48.6806H176.103V62.2242C176.103 64.1526 175.643 65.5943 173.814 65.5943C171.985 65.5943 171.525 64.1526 171.525 62.2242V48.6806H167.614H167.623Z" fill="#8BADDC"/>
<path d="M180.978 48.6806V68.0904H184.573V54.4927H184.627L189.412 68.0904H193.872V48.6806H190.277V61.9719H190.223L185.492 48.6806H180.978Z" fill="#8BADDC"/>
<path d="M198.792 48.6806H194.873V68.0994H198.792V48.6806Z" fill="#8BADDC"/>
<path d="M199.063 48.6806L203.514 68.0904H208.551L213.012 48.6806H208.957L206.073 63.0352H205.992L203.244 48.6806H199.063Z" fill="#8BADDC"/>
<path d="M213.354 48.6806V68.0904H224.483V64.8825H217.274V59.6651H223.798V56.4571H217.274V51.8885H224.204V48.6806H213.354Z" fill="#8BADDC"/>
<path d="M238.072 62.026V62.8189C238.072 66.4053 239.811 68.4779 244.244 68.4779C248.677 68.4779 250.984 66.6306 250.984 62.5216C250.984 60.1607 250.218 58.6648 247.29 57.3853L244.271 56.0787C242.613 55.3758 242.262 54.6369 242.262 53.4384C242.262 52.24 242.721 51.1857 244.487 51.1857C245.983 51.1857 246.605 52.249 246.605 54.0692H250.354V53.5285C250.354 49.807 247.821 48.3112 244.343 48.3112C240.649 48.3112 238.333 50.2395 238.333 54.0242C238.333 57.2591 239.937 58.7009 243.415 59.8994C246.001 60.8005 246.893 61.4492 246.893 63.2154C246.893 64.8464 245.749 65.6123 244.55 65.6123C242.487 65.6123 241.964 64.4409 241.964 62.6207V62.053H238.053L238.072 62.026Z" fill="#8BADDC"/>
<path d="M255.418 48.6806H251.498V68.0994H255.418V48.6806Z" fill="#8BADDC"/>
<path d="M275.756 48.6806L273.034 56.1778H272.98L270.421 48.6806H255.931V51.8885H260.176V68.0904H264.086V51.8885H267.393L271.052 60.449V68.0904H274.963V60.449L280 48.6806H275.756Z" fill="#8BADDC"/>
<path d="M133.228 46.9144H126.74V27.4055H137.382C140.266 27.4055 142.753 29.2708 143.564 31.7488C144.312 34.0467 143.672 36.5337 141.978 38.3089C142.203 38.9216 142.419 39.3992 142.636 39.9489C143.104 41.0392 143.537 42.1205 144.005 43.1929L145.546 46.9054H138.968C138.968 46.9054 138.914 46.7522 138.86 46.6801C138.599 46.1034 138.364 45.4907 138.103 44.914L136.517 41.1564C135.886 39.6425 135.265 38.2007 134.634 36.6869C135.418 36.6689 136.004 36.813 136.761 36.4616C137.292 36.2003 138.094 35.5515 138.121 34.308C138.103 33.6862 137.932 33.2266 137.517 32.7401C137.103 32.2895 136.517 31.9561 135.742 31.9381H133.219V46.8964L133.228 46.9144Z" fill="#00549F"/>
<path d="M200.991 27.4055V46.9054H194.503V38.9576H189.961V46.9054C188.781 46.9054 187.519 46.8964 186.339 46.9054H183.474V31.92H178.932V46.9054H172.444V31.92H167.866V46.9054H161.18C160.018 44.0939 158.783 41.2555 157.648 38.453C157.522 37.8673 157.387 37.2726 157.215 36.6959V46.8964H150.52C149.196 43.8056 147.916 40.7869 146.591 37.651C146.132 36.5697 145.753 35.6866 145.285 34.5512L145.222 34.4071L144.194 31.9921L142.717 28.5319C142.59 28.1444 142.374 27.784 142.248 27.3965H148.925C150.295 30.7306 151.683 34.0286 153.124 37.3086L153.16 37.3897C153.106 37.0113 152.989 36.5247 152.926 36.1642V30.3521C152.935 29.424 152.926 28.3607 152.926 27.4055H159.621C159.702 27.6218 159.756 27.7299 159.82 27.9011C160.604 29.7484 161.351 31.5776 162.135 33.4068L163.893 37.3987C163.857 36.9752 163.757 36.5787 163.712 36.1732V27.4055H189.961V34.4431H194.503V27.4055H200.991V27.4055Z" fill="#00549F"/>
<path d="M219.815 39.5614L221.698 30.7937H221.752L223.636 39.5614H219.815ZM206.812 39.5614L208.696 30.7937H208.75L210.633 39.5614H206.812ZM224.158 27.4055H219.292L215.219 42.7783L211.156 27.4055H206.29L201.126 46.9054H205.226L206.127 42.7783H211.318L212.219 46.9054H218.229L219.13 42.7783H224.321L225.222 46.9054H229.322L224.158 27.4055Z" fill="#8BADDC"/>
<path d="M241.036 34.0647C241.036 31.2352 240.631 27.1352 235.026 27.1352C229.421 27.1352 228.421 31.3253 228.421 37.2185C228.421 43.1118 229.16 47.3019 235.026 47.3019C240.162 47.3019 241.198 43.6885 241.198 39.4983H237.279C237.279 43.6885 236.242 44.4184 234.828 44.4184C233.142 44.4184 232.322 43.3551 232.322 37.4889C232.322 31.9921 232.782 30.0097 234.773 30.0097C236.54 30.0097 237.116 31.2352 237.116 34.0647H241.036V34.0647Z" fill="#8BADDC"/>
<path d="M241.973 46.9144H245.902V38.2548H250.489V46.9144H254.427V27.4055H250.489V34.8667H245.902V27.4055H241.973V46.9144Z" fill="#8BADDC"/>
<path d="M255.274 27.4055V46.9144H266.447V43.6885H259.212V38.444H265.772V35.2181H259.212V30.6315H266.177V27.4055H255.274Z" fill="#8BADDC"/>
<path d="M267.033 27.4055V46.9144H270.637V33.2537H270.691L275.503 46.9144H279.982V27.4055H276.377V40.7689H276.323L271.566 27.4055H267.033Z" fill="#8BADDC"/>
<path d="M113.908 27.3875V68.2526" stroke="#00549F"/>
<path d="M88.8398 40.1291V40.886C88.8398 42.5981 89.2904 43.9317 90.2005 44.8779C91.1106 45.824 92.6245 46.2926 94.7421 46.2926C96.8597 46.2926 98.3465 45.8331 99.4819 44.9139C100.617 43.9948 101.185 42.553 101.185 40.5976C101.185 40.0299 101.131 39.5073 101.032 39.0387C100.924 38.5702 100.743 38.1376 100.473 37.7502C100.203 37.3627 99.8423 36.9932 99.3827 36.6598C98.9232 36.3174 98.3465 35.993 97.6526 35.6866L94.7691 34.4431C93.9761 34.1097 93.4535 33.7583 93.2102 33.3618C92.9669 32.9743 92.8497 32.4877 92.8497 31.92C92.8497 31.6407 92.8768 31.3703 92.9399 31.118C93.0029 30.8567 93.1111 30.6314 93.2823 30.4332C93.4445 30.2349 93.6697 30.0727 93.9491 29.9556C94.2284 29.8385 94.5709 29.7754 94.9854 29.7754C95.7153 29.7754 96.2379 30.0097 96.5443 30.4873C96.8597 30.9648 97.0128 31.6407 97.0128 32.5238H100.599V32.0011C100.599 31.118 100.455 30.3611 100.167 29.7303C99.8784 29.0996 99.4819 28.5769 98.9682 28.1714C98.4546 27.7659 97.8509 27.4686 97.148 27.2883C96.4451 27.1081 95.6792 27.018 94.8502 27.018C93.066 27.018 91.6603 27.4686 90.642 28.3697C89.6238 29.2708 89.1102 30.6404 89.1102 32.4787C89.1102 33.2446 89.2003 33.9114 89.3985 34.4972C89.5877 35.0829 89.8851 35.5875 90.2996 36.029C90.7051 36.4706 91.2097 36.8581 91.8225 37.1825C92.4262 37.5159 93.1471 37.8132 93.9761 38.0926C94.5979 38.2998 95.1205 38.5071 95.5531 38.7053C95.9766 38.9036 96.319 39.1288 96.5803 39.3721C96.8416 39.6154 97.0309 39.8858 97.139 40.1921C97.2471 40.4985 97.3102 40.859 97.3102 41.2735C97.3102 42.0574 97.0849 42.6341 96.6254 43.0036C96.1658 43.373 95.6522 43.5623 95.0755 43.5623C94.5709 43.5623 94.1654 43.4902 93.85 43.355C93.5346 43.2199 93.2913 43.0216 93.093 42.7873C92.9038 42.544 92.7686 42.2467 92.7056 41.8862C92.6335 41.5348 92.6064 41.1383 92.6064 40.7058V40.1561H88.8669L88.8398 40.1291ZM75.3503 40.1291V40.886C75.3503 42.5981 75.8009 43.9317 76.711 44.8779C77.6211 45.824 79.1349 46.2926 81.2525 46.2926C83.3701 46.2926 84.857 45.8331 85.9923 44.9139C87.1277 43.9948 87.6954 42.553 87.6954 40.5976C87.6954 40.0299 87.6414 39.5073 87.5422 39.0387C87.4341 38.5702 87.2539 38.1376 86.9836 37.7502C86.7132 37.3627 86.3528 36.9932 85.8932 36.6598C85.4337 36.3174 84.857 35.993 84.1631 35.6866L81.2796 34.4431C80.4776 34.1097 79.964 33.7583 79.7207 33.3618C79.4774 32.9743 79.3602 32.4877 79.3602 31.92C79.3602 31.6407 79.3872 31.3703 79.4503 31.118C79.5134 30.8567 79.6215 30.6314 79.7927 30.4332C79.9549 30.2349 80.1802 30.0727 80.4596 29.9556C80.7389 29.8385 81.0813 29.7754 81.4958 29.7754C82.2257 29.7754 82.7484 30.0097 83.0547 30.4873C83.3701 30.9648 83.5233 31.6407 83.5233 32.5238H87.1097V32.0011C87.1097 31.118 86.9655 30.3611 86.6772 29.7303C86.3888 29.0996 85.9923 28.5769 85.4787 28.1714C84.9651 27.7659 84.3613 27.4686 83.6585 27.2883C82.9556 27.1081 82.1897 27.018 81.3607 27.018C79.5765 27.018 78.1708 27.4686 77.1525 28.3697C76.1343 29.2708 75.6206 30.6404 75.6206 32.4787C75.6206 33.2446 75.7107 33.9114 75.909 34.4972C76.0982 35.0829 76.3956 35.5875 76.8011 36.029C77.2066 36.4706 77.7112 36.8581 78.3239 37.1825C78.9277 37.5159 79.6486 37.8132 80.4776 38.0926C81.0993 38.2998 81.622 38.5071 82.0545 38.7053C82.478 38.9036 82.8205 39.1288 83.0818 39.3721C83.3431 39.6154 83.5323 39.8858 83.6405 40.1921C83.7486 40.4985 83.8117 40.859 83.8117 41.2735C83.8117 42.0574 83.5864 42.6341 83.1268 43.0036C82.6673 43.373 82.1536 43.5623 81.5769 43.5623C81.0723 43.5623 80.6668 43.4902 80.3514 43.355C80.036 43.2199 79.7837 43.0216 79.5945 42.7873C79.4053 42.544 79.2701 42.2467 79.207 41.8862C79.1349 41.5348 79.1079 41.1383 79.1079 40.7058V40.1561H75.3683L75.3503 40.1291ZM63.5639 27.3604V45.9232H74.1969V42.8594H67.3034V37.8673H73.5481V34.8035H67.3034V30.4332H73.9356V27.3604H63.5639V27.3604ZM48.6416 27.3604V45.9232H52.0748V32.9292H52.1289L56.7065 45.9232H60.9687V27.3604H57.5355V40.075H57.4814L52.9579 27.3604H48.6416ZM45.8572 27.3604H42.1176V45.9232H45.8572V27.3604ZM27.7089 40.1291V40.886C27.7089 42.5981 28.1685 43.9317 29.0696 44.8779C29.9797 45.824 31.4936 46.2926 33.6022 46.2926C35.7107 46.2926 37.2066 45.8331 38.342 44.9139C39.4774 43.9948 40.0451 42.553 40.0451 40.5976C40.0451 40.0299 39.991 39.5073 39.8919 39.0387C39.7837 38.5702 39.6035 38.1376 39.3332 37.7502C39.0629 37.3627 38.7024 36.9932 38.2428 36.6598C37.7833 36.3174 37.2066 35.993 36.5127 35.6866L33.6292 34.4431C32.8272 34.1097 32.3136 33.7583 32.0703 33.3618C31.827 32.9743 31.7098 32.4877 31.7098 31.92C31.7098 31.6407 31.7369 31.3703 31.8 31.118C31.863 30.8567 31.9712 30.6314 32.1424 30.4332C32.3046 30.2349 32.5298 30.0727 32.8092 29.9556C33.0885 29.8385 33.431 29.7754 33.8455 29.7754C34.5754 29.7754 35.089 30.0097 35.4044 30.4873C35.7198 30.9648 35.8729 31.6407 35.8729 32.5238H39.4593V32.0011C39.4593 31.118 39.3152 30.3611 39.0268 29.7303C38.7385 29.0996 38.342 28.5769 37.8283 28.1714C37.3147 27.7659 36.711 27.4686 36.0081 27.2883C35.3052 27.1081 34.5393 27.018 33.7103 27.018C31.9261 27.018 30.5204 27.4686 29.5021 28.3697C28.4839 29.2708 27.9703 30.6404 27.9703 32.4787C27.9703 33.2446 28.0694 33.9114 28.2586 34.4972C28.4478 35.0829 28.7452 35.5875 29.1597 36.029C29.5652 36.4706 30.0698 36.8581 30.6826 37.1825C31.2863 37.5159 32.0072 37.8132 32.8452 38.0926C33.467 38.2998 33.9896 38.5071 34.4222 38.7053C34.8457 38.9036 35.1881 39.1288 35.4494 39.3721C35.7107 39.6154 35.9 39.8858 36.0081 40.1921C36.1162 40.4985 36.1793 40.859 36.1793 41.2735C36.1793 42.0574 35.945 42.6341 35.4945 43.0036C35.0349 43.373 34.5213 43.5623 33.9446 43.5623C33.44 43.5623 33.0345 43.4902 32.7191 43.355C32.4037 43.2199 32.1604 43.0216 31.9622 42.7873C31.7729 42.544 31.6378 42.2467 31.5747 41.8862C31.5026 41.5348 31.4665 41.1383 31.4665 40.7058V40.1561H27.727L27.7089 40.1291ZM14.2194 27.3604V40.3093C14.2194 41.5528 14.3816 42.5711 14.715 43.337C15.0484 44.1119 15.49 44.7157 16.0396 45.1572C16.5893 45.5988 17.2291 45.8961 17.941 46.0583C18.6528 46.2115 19.3918 46.2926 20.1487 46.2926C20.9056 46.2926 21.6445 46.2025 22.3564 46.0223C23.0683 45.8421 23.699 45.5267 24.2577 45.0761C24.8164 44.6256 25.2579 44.0128 25.5823 43.2469C25.9157 42.4809 26.0779 41.4987 26.0779 40.3183V27.3604H22.3384V40.3093C22.3384 40.7779 22.3113 41.2104 22.2483 41.5979C22.1852 41.9853 22.077 42.3278 21.9058 42.6071C21.7436 42.8955 21.5184 43.1207 21.23 43.2829C20.9417 43.4451 20.5812 43.5262 20.1487 43.5262C19.7162 43.5262 19.3377 43.4451 19.0583 43.2829C18.779 43.1207 18.5627 42.8955 18.3915 42.6071C18.2293 42.3187 18.1122 41.9853 18.0491 41.5979C17.986 41.2104 17.959 40.7779 17.959 40.3093V27.3604H14.2104H14.2194ZM0 45.9232H6.31674C7.40707 45.9232 8.3262 45.779 9.05609 45.4816C9.795 45.1843 10.3897 44.7968 10.8493 44.3012C11.3089 43.8056 11.6333 43.2289 11.8225 42.5711C12.0117 41.9133 12.1108 41.2194 12.1108 40.4895C12.1108 39.246 11.8045 38.2458 11.2007 37.4978C10.597 36.7499 9.76797 36.3084 8.7317 36.1732V36.1192C9.66884 35.8578 10.3717 35.3712 10.8403 34.6504C11.3089 33.9295 11.5431 33.0644 11.5431 32.0642C11.5431 31.1811 11.408 30.4332 11.1557 29.8294C10.8943 29.2257 10.5339 28.7391 10.0653 28.3697C9.59676 28.0092 9.03807 27.7479 8.38928 27.5857C7.74048 27.4325 7.02861 27.3514 6.27168 27.3514H0V45.9142V45.9232ZM3.74859 30.1178H5.10025C6.0374 30.1178 6.72223 30.298 7.15476 30.6675C7.58729 31.0279 7.80356 31.6587 7.80356 32.5418C7.80356 33.4249 7.56927 34.0556 7.09169 34.4251C6.6141 34.7945 5.85717 34.9838 4.82091 34.9838H3.7576V30.1178H3.74859ZM3.74859 37.5789H5.36157C5.77608 37.5789 6.15454 37.624 6.50597 37.7051C6.8574 37.7952 7.15476 37.9394 7.40707 38.1647C7.65938 38.3809 7.85763 38.6693 8.0018 39.0207C8.14598 39.3811 8.22708 39.8227 8.22708 40.3634C8.22708 41.4357 7.94774 42.1746 7.39806 42.5711C6.83938 42.9675 6.1185 43.1658 5.21739 43.1658H3.7576V37.5789H3.74859Z" fill="#00549F"/>
<path d="M101.185 68.2705V65.2068H94.5528V49.7168H90.8132V68.2795H101.185V68.2705ZM79.8018 55.8173C79.8648 54.9522 79.982 54.2403 80.1622 53.6816C80.3424 53.123 80.6037 52.7265 80.9371 52.4742C81.2796 52.2218 81.7211 52.0957 82.2798 52.0957C82.8385 52.0957 83.28 52.2218 83.6224 52.4742C83.9649 52.7265 84.2172 53.132 84.4064 53.6816C84.5866 54.2403 84.7128 54.9432 84.7668 55.8173C84.8299 56.6823 84.8569 57.7456 84.8569 58.9891C84.8569 60.2327 84.8299 61.296 84.7668 62.17C84.7038 63.0441 84.5866 63.756 84.4064 64.3057C84.2262 64.8553 83.9649 65.2518 83.6224 65.5041C83.28 65.7564 82.8385 65.8826 82.2798 65.8826C81.7211 65.8826 81.2796 65.7564 80.9371 65.5041C80.5947 65.2518 80.3424 64.8553 80.1622 64.3057C79.982 63.756 79.8558 63.0531 79.8018 62.17C79.7387 61.296 79.7116 60.2327 79.7116 58.9891C79.7116 57.7456 79.7387 56.6823 79.8018 55.8173M76.1613 62.8729C76.2874 64.0624 76.5758 65.0806 77.0173 65.9276C77.4589 66.7747 78.0987 67.4415 78.9277 67.9191C79.7567 68.3967 80.8741 68.631 82.2798 68.631C83.6855 68.631 84.8029 68.3877 85.6319 67.9191C86.4609 67.4415 87.1007 66.7837 87.5422 65.9276C87.9838 65.0806 88.2721 64.0624 88.3983 62.8729C88.5244 61.6834 88.5965 60.3949 88.5965 58.9891C88.5965 57.5834 88.5335 56.2858 88.3983 55.1054C88.2631 53.9159 87.9838 52.8977 87.5422 52.0506C87.1007 51.2036 86.4609 50.5368 85.6319 50.0592C84.8029 49.5816 83.6855 49.3473 82.2798 49.3473C80.8741 49.3473 79.7567 49.5816 78.9277 50.0592C78.0987 50.5368 77.4589 51.1946 77.0173 52.0506C76.5758 52.8977 76.2874 53.9159 76.1613 55.1054C76.0351 56.2948 75.9631 57.5924 75.9631 58.9891C75.9631 60.3859 76.0261 61.6925 76.1613 62.8729ZM65.348 55.8173C65.4111 54.9522 65.5283 54.2403 65.7085 53.6816C65.8887 53.123 66.15 52.7265 66.4925 52.4742C66.8349 52.2218 67.2764 52.0957 67.8351 52.0957C68.3938 52.0957 68.8353 52.2218 69.1777 52.4742C69.5202 52.7265 69.7725 53.132 69.9617 53.6816C70.1419 54.2403 70.2681 54.9432 70.3221 55.8173C70.3852 56.6823 70.4123 57.7456 70.4123 58.9891C70.4123 60.2327 70.3852 61.296 70.3221 62.17C70.2591 63.0441 70.1419 63.756 69.9617 64.3057C69.7815 64.8553 69.5202 65.2518 69.1777 65.5041C68.8353 65.7564 68.3938 65.8826 67.8351 65.8826C67.2764 65.8826 66.8349 65.7564 66.4925 65.5041C66.15 65.2518 65.8977 64.8553 65.7085 64.3057C65.5283 63.756 65.4021 63.0531 65.348 62.17C65.285 61.296 65.2579 60.2327 65.2579 58.9891C65.2579 57.7456 65.285 56.6823 65.348 55.8173M61.7076 62.8729C61.8337 64.0624 62.1221 65.0806 62.5636 65.9276C63.0052 66.7747 63.645 67.4415 64.474 67.9191C65.303 68.3967 66.4204 68.631 67.8261 68.631C69.2318 68.631 70.3492 68.3877 71.1782 67.9191C72.0072 67.4415 72.647 66.7837 73.0885 65.9276C73.5301 65.0806 73.8184 64.0624 73.9446 62.8729C74.0707 61.6834 74.1428 60.3949 74.1428 58.9891C74.1428 57.5834 74.0797 56.2858 73.9446 55.1054C73.8184 53.9159 73.5301 52.8977 73.0885 52.0506C72.647 51.2036 72.0072 50.5368 71.1782 50.0592C70.3492 49.5816 69.2318 49.3473 67.8261 49.3473C66.4204 49.3473 65.303 49.5816 64.474 50.0592C63.645 50.5368 63.0052 51.1946 62.5636 52.0506C62.1221 52.8977 61.8337 53.9159 61.7076 55.1054C61.5814 56.2948 61.5094 57.5924 61.5094 58.9891C61.5094 60.3859 61.5724 61.6925 61.7076 62.8729ZM47.4431 68.2705H51.1827V60.0254H55.5531V68.2705H59.2926V49.7078H55.5531V56.8085H51.1827V49.7078H47.4431V68.2705V68.2705ZM45.1543 55.9704C45.1543 55.2946 45.1093 54.5737 45.0101 53.7988C44.92 53.0238 44.6767 52.312 44.2983 51.6361C43.9198 50.9693 43.3431 50.4196 42.5681 49.9871C41.7932 49.5546 40.7479 49.3383 39.4143 49.3383C38.0086 49.3383 36.8912 49.5726 36.0622 50.0502C35.2332 50.5278 34.5934 51.1856 34.1518 52.0416C33.7103 52.8887 33.4219 53.9069 33.2958 55.0964C33.1696 56.2858 33.0975 57.5834 33.0975 58.9801C33.0975 60.3768 33.1606 61.6834 33.2958 62.8639C33.431 64.0533 33.7103 65.0716 34.1518 65.9186C34.5934 66.7657 35.2332 67.4325 36.0622 67.9101C36.8912 68.3877 38.0086 68.6219 39.4143 68.6219C40.6398 68.6219 41.649 68.4237 42.415 68.0272C43.1899 67.6307 43.7846 67.0901 44.2082 66.4052C44.6317 65.7204 44.92 64.9274 45.0822 64.0263C45.2354 63.1252 45.3165 62.17 45.3165 61.1698H41.5769C41.5769 62.179 41.5139 62.99 41.3967 63.6028C41.2796 64.2155 41.1084 64.6931 40.9011 65.0355C40.6939 65.378 40.4506 65.5942 40.1622 65.7114C39.8738 65.8195 39.5675 65.8826 39.2431 65.8826C38.8466 65.8826 38.4952 65.8015 38.1888 65.6393C37.8824 65.4771 37.6301 65.1527 37.4319 64.6751C37.2336 64.1975 37.0804 63.5307 36.9903 62.6566C36.9002 61.7826 36.8461 60.6562 36.8461 59.2505C36.8461 57.9348 36.8822 56.8175 36.9543 55.9074C37.0264 54.9973 37.1435 54.2583 37.3147 53.6997C37.4859 53.141 37.7292 52.7265 38.0266 52.4742C38.333 52.2218 38.7114 52.0957 39.18 52.0957C40.027 52.0957 40.6128 52.4021 40.9372 53.0148C41.2525 53.6276 41.4147 54.6098 41.4147 55.9614H45.1543V55.9704ZM19.2566 62.4674V63.2243C19.2566 64.9364 19.7071 66.2701 20.6173 67.2162C21.5274 68.1624 23.0412 68.631 25.1498 68.631C27.2584 68.631 28.7632 68.1714 29.8986 67.2523C31.034 66.3331 31.6017 64.8914 31.6017 62.936C31.6017 62.3683 31.5476 61.8456 31.4485 61.3771C31.3494 60.9085 31.1602 60.485 30.8898 60.0885C30.6195 59.692 30.2591 59.3316 29.7995 58.9981C29.3399 58.6557 28.7632 58.3313 28.0694 58.025L25.1859 56.7814C24.3839 56.448 23.8702 56.0966 23.6269 55.7001C23.3836 55.3126 23.2665 54.826 23.2665 54.2583C23.2665 53.979 23.2935 53.7087 23.3566 53.4474C23.4197 53.186 23.5278 52.9608 23.699 52.7625C23.8702 52.5643 24.0865 52.4021 24.3659 52.2849C24.6452 52.1678 24.9876 52.1047 25.4021 52.1047C26.132 52.1047 26.6547 52.339 26.961 52.8166C27.2764 53.2942 27.4296 53.97 27.4296 54.8531H31.016V54.3304C31.016 53.4474 30.8718 52.6904 30.5835 52.0597C30.2951 51.4289 29.8986 50.9062 29.385 50.5007C28.8714 50.0952 28.2676 49.7979 27.5648 49.6177C26.8619 49.4374 26.096 49.3473 25.267 49.3473C23.4828 49.3473 22.077 49.7979 21.0588 50.699C20.0406 51.6001 19.5269 52.9698 19.5269 54.808C19.5269 55.574 19.617 56.2408 19.8153 56.8265C20.0045 57.4032 20.3019 57.9168 20.7074 58.3584C21.1129 58.7999 21.6175 59.1874 22.2302 59.5118C22.834 59.8452 23.5549 60.1426 24.3929 60.4219C25.0146 60.6291 25.5373 60.8364 25.9608 61.0346C26.3843 61.2329 26.7267 61.4582 26.9881 61.7015C27.2494 61.9448 27.4296 62.2151 27.5467 62.5215C27.6549 62.8278 27.718 63.1883 27.718 63.6028C27.718 64.3777 27.4837 64.9544 27.0331 65.3329C26.5736 65.7024 26.0599 65.8916 25.4832 65.8916C24.9786 65.8916 24.5731 65.8195 24.2577 65.6843C23.9423 65.5492 23.69 65.3509 23.5008 65.1076C23.3116 64.8643 23.1764 64.567 23.1133 64.2065C23.0412 63.8551 23.0142 63.4586 23.0142 63.0261V62.4764H19.2746L19.2566 62.4674Z" fill="#00549F"/>
</g>
<defs>
<clipPath id="clip0_0_7234">
<rect width="280" height="41.631" fill="white" transform="translate(0 27)"/>
</clipPath>
</defs>
</svg>
